<svg width="36" height="36" viewBox="0 0 36 36" fill="none" xmlns="http://www.w3.org/2000/svg">
<symbol id="footer_2" viewBox="0 0 36 36">
<circle cx="18" cy="18" r="18" fill="#8FC33F"/>
<path d="M25.5 12.0067C24.8471 12.4585 24.1242 12.804 23.3591 13.0299C22.9485 12.5668 22.4027 12.2386 21.7957 12.0896C21.1887 11.9406 20.5497 11.9781 19.9651 12.197C19.3805 12.4158 18.8785 12.8055 18.527 13.3133C18.1756 13.8211 17.9916 14.4225 18 15.0362V15.705C16.8018 15.7354 15.6145 15.4748 14.5439 14.9462C13.4732 14.4177 12.5525 13.6377 11.8636 12.6756C11.8636 12.6756 9.13636 18.6943 15.2727 21.3694C13.8685 22.3043 12.1958 22.773 10.5 22.7069C16.6364 26.0507 24.1364 22.7069 24.1364 15.0161C24.1357 14.8299 24.1175 14.644 24.0818 14.4611C24.7777 13.788 25.2687 12.9381 25.5 12.0067Z" stroke="white" stroke-width="1.5" stroke-linecap="round" stroke-linejoin="round"  fill="#8FC33F"/>
</symbol>
</svg>
