<svg width="36" height="36" viewBox="0 0 36 36" fill="none" xmlns="http://www.w3.org/2000/svg">
<symbol id="footer_1" viewBox="0 0 36 36">
<circle cx="18" cy="18" r="18" fill="#8FC33F"/>
<path d="M21.375 11.25H14.625C12.761 11.25 11.25 12.761 11.25 14.625V21.375C11.25 23.239 12.761 24.75 14.625 24.75H21.375C23.239 24.75 24.75 23.239 24.75 21.375V14.625C24.75 12.761 23.239 11.25 21.375 11.25Z" stroke="white" stroke-width="1.5" stroke-linecap="round" stroke-linejoin="round" fill="#8FC33F"/>
<path d="M20.6999 17.5745C20.7832 18.1362 20.6872 18.71 20.4257 19.2141C20.1641 19.7181 19.7503 20.1269 19.243 20.3822C18.7357 20.6376 18.1609 20.7264 17.6002 20.6362C17.0395 20.546 16.5215 20.2813 16.1199 19.8797C15.7183 19.4781 15.4536 18.9602 15.3634 18.3995C15.2732 17.8388 15.362 17.2639 15.6174 16.7566C15.8727 16.2493 16.2815 15.8355 16.7856 15.5739C17.2897 15.3124 17.8634 15.2164 18.4251 15.2997C18.9982 15.3847 19.5287 15.6517 19.9383 16.0613C20.3479 16.4709 20.6149 17.0014 20.6999 17.5745Z" stroke="white" stroke-width="1.5" stroke-linecap="round" stroke-linejoin="round" fill="#8FC33F"/>
<path d="M21.7124 14.2877H21.7186" stroke="white" stroke-width="1.5" stroke-linecap="round" stroke-linejoin="round"/>
</symbol>
</svg>
