<svg width="56" height="56" viewBox="0 0 56 56" fill="none" xmlns="http://www.w3.org/2000/svg">
<rect width="56" height="56" rx="28" fill="white"/>
<path fill-rule="evenodd" clip-rule="evenodd" d="M41.5 25.2255V36.9503C41.5 40.2914 38.8137 43 35.5 43H20.5C17.1863 43 14.5 40.2914 14.5 36.9503V25.2255C14.5 23.4091 15.3095 21.6887 16.7048 20.5398L24.2048 14.364C26.4135 12.5453 29.5865 12.5453 31.7952 14.364L39.2952 20.5398C40.6905 21.6887 41.5 23.4091 41.5 25.2255ZM24.625 28.75C24.625 28.1287 25.1287 27.625 25.75 27.625C26.3713 27.625 26.875 28.1287 26.875 28.75V33.25C26.875 35.114 28.386 36.625 30.25 36.625C32.114 36.625 33.625 35.114 33.625 33.25C33.625 32.6287 34.1287 32.125 34.75 32.125H35.5C36.1213 32.125 36.625 31.6213 36.625 31C36.625 30.3787 36.1213 29.875 35.5 29.875H34.75C32.886 29.875 31.375 31.386 31.375 33.25C31.375 33.8713 30.8713 34.375 30.25 34.375C29.6287 34.375 29.125 33.8713 29.125 33.25V28.75C29.125 26.886 27.614 25.375 25.75 25.375C23.886 25.375 22.375 26.886 22.375 28.75V30.25C22.375 30.8713 21.8713 31.375 21.25 31.375H20.5C19.8787 31.375 19.375 31.8787 19.375 32.5C19.375 33.1213 19.8787 33.625 20.5 33.625H21.25C23.114 33.625 24.625 32.114 24.625 30.25V28.75Z" fill="#8FC33F"/>
</svg>
