<svg width="56" height="56" viewBox="0 0 56 56" fill="none" xmlns="http://www.w3.org/2000/svg">
<rect width="56" height="56" rx="28" fill="white"/>
<path fill-rule="evenodd" clip-rule="evenodd" d="M13 16.75C13 15.5074 14.0074 14.5 15.25 14.5C16.4926 14.5 17.5 15.5074 17.5 16.75V19.75H13V16.75ZM13 36.9139V21.25H17.5V36.9139C17.5 37.7036 17.2662 38.4756 16.8282 39.1327L15.666 40.876C15.4681 41.1728 15.0319 41.1728 14.834 40.876L13.6718 39.1327C13.2338 38.4756 13 37.7036 13 36.9139ZM22 17.5C22 15.8431 23.3431 14.5 25 14.5H40C41.6569 14.5 43 15.8431 43 17.5V38.5C43 40.1569 41.6569 41.5 40 41.5H25C23.3431 41.5 22 40.1569 22 38.5V17.5ZM27.25 22C27.25 21.5858 27.5858 21.25 28 21.25H37C37.4142 21.25 37.75 21.5858 37.75 22C37.75 22.4142 37.4142 22.75 37 22.75H28C27.5858 22.75 27.25 22.4142 27.25 22ZM28 27.25C27.5858 27.25 27.25 27.5858 27.25 28C27.25 28.4142 27.5858 28.75 28 28.75H37C37.4142 28.75 37.75 28.4142 37.75 28C37.75 27.5858 37.4142 27.25 37 27.25H28ZM27.25 34C27.25 33.5858 27.5858 33.25 28 33.25H32.5C32.9142 33.25 33.25 33.5858 33.25 34C33.25 34.4142 32.9142 34.75 32.5 34.75H28C27.5858 34.75 27.25 34.4142 27.25 34Z" fill="#8FC33F"/>
</svg>
