<svg width="56" height="56" viewBox="0 0 56 56" fill="none" xmlns="http://www.w3.org/2000/svg">
<rect width="56" height="56" rx="28" fill="white"/>
<path fill-rule="evenodd" clip-rule="evenodd" d="M26.5 14.5H29.5C36.9558 14.5 43 20.5442 43 28C43 35.4558 36.9558 41.5 29.5 41.5H19C15.6863 41.5 13 38.8137 13 35.5V28C13 20.5442 19.0442 14.5 26.5 14.5ZM28 24.625C26.136 24.625 24.625 26.136 24.625 28C24.625 29.864 26.136 31.375 28 31.375C29.864 31.375 31.375 29.864 31.375 28C31.375 26.136 29.864 24.625 28 24.625ZM22.375 28C22.375 24.8934 24.8934 22.375 28 22.375C31.1066 22.375 33.625 24.8934 33.625 28C33.625 29.1465 33.282 30.2128 32.6931 31.1021L34.0455 32.4545C34.4848 32.8938 34.4848 33.6062 34.0455 34.0455C33.6062 34.4848 32.8938 34.4848 32.4545 34.0455L31.1021 32.6931C30.2128 33.282 29.1465 33.625 28 33.625C24.8934 33.625 22.375 31.1066 22.375 28Z" fill="#8FC33F"/>
</svg>
