<svg width="56" height="56" viewBox="0 0 56 56" fill="none" xmlns="http://www.w3.org/2000/svg">
<rect width="56" height="56" rx="28" fill="white"/>
<path fill-rule="evenodd" clip-rule="evenodd" d="M14.5 16C14.5 14.3431 15.8431 13 17.5 13H38.5C40.1569 13 41.5 14.3431 41.5 16V31C41.5 32.6569 40.1569 34 38.5 34H17.5C15.8431 34 14.5 32.6569 14.5 31V16ZM38.5 29.5C38.5 28.6716 37.8284 28 37 28C36.1716 28 35.5 28.6716 35.5 29.5C35.5 30.3284 36.1716 31 37 31C37.8284 31 38.5 30.3284 38.5 29.5ZM19 16C19.8284 16 20.5 16.6716 20.5 17.5C20.5 18.3284 19.8284 19 19 19C18.1716 19 17.5 18.3284 17.5 17.5C17.5 16.6716 18.1716 16 19 16ZM31 23.5C31 21.8431 29.6569 20.5 28 20.5C26.3431 20.5 25 21.8431 25 23.5C25 25.1569 26.3431 26.5 28 26.5C29.6569 26.5 31 25.1569 31 23.5ZM25.7955 39.8258L26.875 40.9053V37.75C26.875 37.1287 27.3787 36.625 28 36.625C28.6213 36.625 29.125 37.1287 29.125 37.75V40.9053L30.2045 39.8258C30.6438 39.3865 31.3562 39.3865 31.7955 39.8258C32.2348 40.2652 32.2348 40.9775 31.7955 41.4168L29.8562 43.3562C28.831 44.3813 27.169 44.3813 26.1438 43.3562L24.2045 41.4168C23.7652 40.9775 23.7652 40.2652 24.2045 39.8258C24.6438 39.3865 25.3562 39.3865 25.7955 39.8258Z" fill="#8FC33F"/>
</svg>
