<svg width="56" height="56" viewBox="0 0 56 56" fill="none" xmlns="http://www.w3.org/2000/svg">
<rect width="56" height="56" rx="28" fill="white"/>
<path fill-rule="evenodd" clip-rule="evenodd" d="M17 16H39C41.2091 16 43 17.7909 43 20V30C43 30.5523 42.5523 31 42 31H35C32.7909 31 31 32.7909 31 35V39C31 39.5523 30.5523 40 30 40H17C14.7909 40 13 38.2091 13 36V20C13 17.7909 14.7909 16 17 16ZM19 20.5C19.8284 20.5 20.5 21.1716 20.5 22C20.5 22.8284 19.8284 23.5 19 23.5C18.1716 23.5 17.5 22.8284 17.5 22C17.5 21.1716 18.1716 20.5 19 20.5ZM31 28C31 26.3431 29.6569 25 28 25C26.3431 25 25 26.3431 25 28C25 29.6569 26.3431 31 28 31C29.6569 31 31 29.6569 31 28ZM43.8467 34.7408C44.2558 34.2732 44.2085 33.5625 43.7409 33.1534C43.2733 32.7442 42.5625 32.7916 42.1534 33.2592L37.8485 38.179C37.7164 38.3301 37.4888 38.3503 37.3321 38.2249L34.7028 36.1215C34.2177 35.7334 33.5097 35.8121 33.1216 36.2972C32.7334 36.7824 32.8121 37.4904 33.2973 37.8785L35.9265 39.9819C37.0234 40.8594 38.6168 40.7179 39.5418 39.6607L43.8467 34.7408Z" fill="#8FC33F"/>
</svg>
