<svg width="56" height="56" viewBox="0 0 56 56" fill="none" xmlns="http://www.w3.org/2000/svg">
<rect width="56" height="56" rx="28" fill="white"/>
<path fill-rule="evenodd" clip-rule="evenodd" d="M29.5 13.375C28.8787 13.375 28.375 13.8787 28.375 14.5C28.375 15.1213 28.8787 15.625 29.5 15.625C30.9281 15.625 32.3423 15.9063 33.6617 16.4528C34.9811 16.9993 36.1799 17.8004 37.1898 18.8102C38.1996 19.8201 39.0007 21.0189 39.5472 22.3383C40.0937 23.6577 40.375 25.0719 40.375 26.5C40.375 27.1213 40.8787 27.625 41.5 27.625C42.1213 27.625 42.625 27.1213 42.625 26.5C42.625 24.7764 42.2855 23.0697 41.6259 21.4773C40.9663 19.8849 39.9995 18.438 38.7808 17.2192C37.562 16.0005 36.1151 15.0337 34.5227 14.3741C32.9303 13.7145 31.2236 13.375 29.5 13.375ZM41.5 38.5V36.0311C41.5 34.8044 40.7531 33.7013 39.6142 33.2457L36.563 32.0252C35.1143 31.4457 33.4633 32.0734 32.7655 33.469L32.5 34C32.5 34 28.75 33.25 25.75 30.25C22.75 27.25 22 23.5 22 23.5L22.531 23.2345C23.9266 22.5367 24.5543 20.8857 23.9748 19.437L22.7543 16.3858C22.2987 15.2469 21.1956 14.5 19.9689 14.5H17.5C15.8431 14.5 14.5 15.8431 14.5 17.5C14.5 30.7548 25.2452 41.5 38.5 41.5C40.1569 41.5 41.5 40.1569 41.5 38.5ZM28.375 20.5C28.375 19.8787 28.8787 19.375 29.5 19.375C30.4357 19.375 31.3622 19.5593 32.2266 19.9174C33.0911 20.2754 33.8765 20.8002 34.5381 21.4619C35.1998 22.1235 35.7246 22.9089 36.0826 23.7734C36.4407 24.6378 36.625 25.5643 36.625 26.5C36.625 27.1213 36.1213 27.625 35.5 27.625C34.8787 27.625 34.375 27.1213 34.375 26.5C34.375 25.8598 34.2489 25.2259 34.0039 24.6344C33.7589 24.043 33.3998 23.5055 32.9471 23.0529C32.4945 22.6002 31.957 22.2411 31.3656 21.9961C30.7741 21.7511 30.1402 21.625 29.5 21.625C28.8787 21.625 28.375 21.1213 28.375 20.5Z" fill="#8FC33F"/>
</svg>
