<svg width="62" height="62" viewBox="0 0 62 62" fill="none" xmlns="http://www.w3.org/2000/svg">
<path fill-rule="evenodd" clip-rule="evenodd" d="M46.4998 5.16669H30.9998C26.6632 5.16669 22.9505 7.83807 21.4176 11.625H56.082C54.5491 7.83807 50.8364 5.16669 46.4998 5.16669ZM5.1665 41.3334L5.1665 31H15.4998C18.3533 31 20.6665 33.3132 20.6665 36.1667C20.6665 39.0202 18.3533 41.3334 15.4998 41.3334H5.1665ZM15.4998 15.5H56.8332V37.75C56.8332 38.3023 56.3855 38.75 55.8332 38.75H40.1665C37.9574 38.75 36.1665 40.5409 36.1665 42.75V55.8334C36.1665 56.3856 35.7188 56.8334 35.1665 56.8334H15.4998C9.79289 56.8334 5.1665 52.207 5.1665 46.5V45.2084H15.4998C20.4934 45.2084 24.5415 41.1603 24.5415 36.1667C24.5415 31.1731 20.4934 27.125 15.4998 27.125L5.1665 27.125V25.8334C5.1665 20.1264 9.79289 15.5 15.4998 15.5ZM57.962 47.4878C58.5076 46.8643 58.4444 45.9167 57.8209 45.3712C57.1975 44.8256 56.2498 44.8888 55.7043 45.5123L47.6078 54.7654L42.2702 50.4954C41.6233 49.9779 40.6794 50.0827 40.1619 50.7296C39.6444 51.3765 39.7492 52.3205 40.3961 52.838L46.1073 57.4069C47.152 58.2427 48.6695 58.1078 49.5505 57.101L57.962 47.4878Z" fill="#8FC33F"/>
</svg>
