<svg width="62" height="62" viewBox="0 0 62 62" fill="none" xmlns="http://www.w3.org/2000/svg">
<path fill-rule="evenodd" clip-rule="evenodd" d="M51.6663 15.5V42.5C51.6663 44.7092 49.8755 46.5 47.6663 46.5H41.4163C42.1898 44.9436 42.6247 43.1893 42.6247 41.3334C42.6247 34.913 37.42 29.7084 30.9997 29.7084C24.5794 29.7084 19.3747 34.913 19.3747 41.3334C19.3747 43.1893 19.8096 44.9436 20.5831 46.5H14.333C12.1239 46.5 10.333 44.7092 10.333 42.5V15.5C10.333 9.79308 14.9594 5.16669 20.6663 5.16669H41.333C47.04 5.16669 51.6663 9.79308 51.6663 15.5ZM19.9163 15.5C19.9163 15.0858 20.2521 14.75 20.6663 14.75H41.333C41.7472 14.75 42.083 15.0858 42.083 15.5C42.083 15.9142 41.7472 16.25 41.333 16.25H20.6663C20.2521 16.25 19.9163 15.9142 19.9163 15.5ZM20.6663 22.5C20.2521 22.5 19.9163 22.8358 19.9163 23.25C19.9163 23.6642 20.2521 24 20.6663 24H30.9997C31.4139 24 31.7497 23.6642 31.7497 23.25C31.7497 22.8358 31.4139 22.5 30.9997 22.5H20.6663ZM36.1663 47.11C37.7519 45.6909 38.7497 43.6286 38.7497 41.3334C38.7497 37.0531 35.2799 33.5834 30.9997 33.5834C26.7195 33.5834 23.2497 37.0531 23.2497 41.3334C23.2497 43.6286 24.2475 45.6909 25.833 47.11V56.8334L30.9997 54.25L36.1663 56.8334V47.11Z" fill="#8FC33F"/>
</svg>
