<svg width="62" height="62" viewBox="0 0 62 62" fill="none" xmlns="http://www.w3.org/2000/svg">
<path fill-rule="evenodd" clip-rule="evenodd" d="M28.4165 7.75H33.5832C46.4238 7.75 56.8332 18.1594 56.8332 31C56.8332 43.8406 46.4238 54.25 33.5832 54.25H15.4998C9.79289 54.25 5.1665 49.6236 5.1665 43.9167V31C5.1665 18.1594 15.5759 7.75 28.4165 7.75ZM33.0454 22.2128C32.7575 21.2909 31.9316 20.6667 30.9998 20.6667C30.068 20.6667 29.2422 21.2909 28.9543 22.2128L27.5056 26.8513H22.8175C21.8857 26.8513 21.0599 27.4755 20.7719 28.3974C20.484 29.3193 20.7994 30.3293 21.5533 30.8991L25.346 33.7658L23.8973 38.4043C23.6093 39.3262 23.9248 40.3362 24.6786 40.906C25.4325 41.4758 26.4533 41.4758 27.2071 40.906L30.9998 38.0393L34.7926 40.906C35.5464 41.4758 36.5672 41.4758 37.321 40.906C38.0749 40.3362 38.3903 39.3262 38.1024 38.4043L36.6537 33.7658L40.4464 30.8991C41.2003 30.3293 41.5157 29.3193 41.2277 28.3974C40.9398 27.4755 40.114 26.8513 39.1822 26.8513H34.4941L33.0454 22.2128Z" fill="#8FC33F"/>
</svg>
