<svg width="62" height="62" viewBox="0 0 62 62" fill="none" xmlns="http://www.w3.org/2000/svg">
<path fill-rule="evenodd" clip-rule="evenodd" d="M9.40184 46.5278C9.40184 52.2194 14.2368 56.8333 20.2011 56.8333H41.7996C47.7638 56.8333 52.5988 52.2194 52.5988 46.5278V33.927C52.5988 32.0974 53.3604 30.3428 54.7161 29.0491C57.8572 26.0516 57.4488 21.0853 53.8563 18.592L37.3521 7.13774C33.5654 4.50965 28.4353 4.50965 24.6485 7.13774L8.1443 18.592C4.55182 21.0853 4.14349 26.0516 7.28452 29.0491C8.64022 30.3428 9.40184 32.0974 9.40184 33.927V46.5278ZM32.0963 25.8333H29.9043C28.6938 25.8333 27.7124 26.7586 27.7124 27.9C27.7124 29.2062 26.3149 30.0366 25.1677 29.4121L25.0512 29.3487C24.0028 28.778 22.6623 29.1166 22.057 30.1051L20.961 31.8949C20.3557 32.8834 20.7149 34.1473 21.7633 34.718C22.911 35.3428 22.9111 36.9906 21.7633 37.6153C20.715 38.186 20.3558 39.45 20.961 40.4384L22.057 42.2282C22.6623 43.2167 24.0029 43.5554 25.0512 42.9847L25.1677 42.9213C26.3149 42.2968 27.7124 43.1272 27.7124 44.4333C27.7124 45.5747 28.6938 46.5 29.9043 46.5H32.0963C33.3068 46.5 34.2882 45.5747 34.2882 44.4333C34.2882 43.1272 35.6857 42.2968 36.8329 42.9213L36.9494 42.9847C37.9978 43.5554 39.3384 43.2167 39.9436 42.2282L41.0396 40.4384C41.6449 39.45 41.2857 38.186 40.2373 37.6153C39.0896 36.9906 39.0896 35.3428 40.2373 34.718C41.2857 34.1473 41.6449 32.8834 41.0396 31.8949L39.9437 30.1051C39.3384 29.1166 37.9978 28.778 36.9494 29.3487L36.8329 29.4121C35.6857 30.0366 34.2882 29.2062 34.2882 27.9C34.2882 26.7586 33.3068 25.8333 32.0963 25.8333ZM31.0003 40.0417C33.1404 40.0417 34.8753 38.3068 34.8753 36.1667C34.8753 34.0266 33.1404 32.2917 31.0003 32.2917C28.8602 32.2917 27.1253 34.0266 27.1253 36.1667C27.1253 38.3068 28.8602 40.0417 31.0003 40.0417Z" fill="#8FC33F"/>
</svg>
