<svg width="56" height="56" viewBox="0 0 56 56" fill="none" xmlns="http://www.w3.org/2000/svg">
<rect width="56" height="56" rx="28" fill="white"/>
<path fill-rule="evenodd" clip-rule="evenodd" d="M25 26.5C28.3137 26.5 31 23.8137 31 20.5C31 17.1863 28.3137 14.5 25 14.5C21.6863 14.5 19 17.1863 19 20.5C19 23.8137 21.6863 26.5 25 26.5ZM25 41.5C30.799 41.5 35.5 38.8137 35.5 35.5C35.5 32.1863 30.799 29.5 25 29.5C19.201 29.5 14.5 32.1863 14.5 35.5C14.5 38.8137 19.201 41.5 25 41.5ZM30.9421 26.2232C32.3712 24.7398 33.25 22.7226 33.25 20.5001C33.25 19.4432 33.0513 18.4328 32.6891 17.504C35.0866 17.6032 36.9999 19.5782 36.9999 22.0001C36.9999 24.4854 34.9852 26.5001 32.4999 26.5001C31.9523 26.5001 31.4275 26.4023 30.9421 26.2232ZM37.7499 35.4999C37.7499 36.3081 37.5702 37.0892 37.2354 37.8273C39.7951 37.0339 41.4999 35.6164 41.4999 33.9999C41.4999 31.7406 38.1699 29.8702 33.8301 29.5487C36.2461 31.05 37.7499 33.1613 37.7499 35.4999Z" fill="#8FC33F"/>
</svg>
