<svg width="56" height="56" viewBox="0 0 56 56" fill="none" xmlns="http://www.w3.org/2000/svg">
<rect width="56" height="56" rx="28" fill="white"/>
<path fill-rule="evenodd" clip-rule="evenodd" d="M28 26.5C30.4853 26.5 32.5 24.4853 32.5 22C32.5 19.5147 30.4853 17.5 28 17.5C25.5147 17.5 23.5 19.5147 23.5 22C23.5 24.4853 25.5147 26.5 28 26.5ZM28 38.5C32.9706 38.5 37 36.4853 37 34C37 31.5147 32.9706 29.5 28 29.5C23.0294 29.5 19 31.5147 19 34C19 36.4853 23.0294 38.5 28 38.5ZM19.5725 29.5286C15.868 29.757 13 31.3361 13 33.2502C13 34.8281 14.9492 36.1784 17.7094 36.732C17.0926 35.8968 16.75 34.9725 16.75 34.0002C16.75 32.285 17.8161 30.7193 19.5725 29.5286ZM39.2501 34.0002C39.2501 34.9725 38.9074 35.8968 38.2907 36.732C41.0509 36.1784 43.0001 34.8281 43.0001 33.2502C43.0001 31.3361 40.1321 29.757 36.4276 29.5286C38.184 30.7193 39.2501 32.285 39.2501 34.0002ZM33.5774 25.8031C34.3173 24.7201 34.75 23.4106 34.75 22C34.75 21.5319 34.7023 21.075 34.6116 20.6337C34.8923 20.5468 35.1907 20.5 35.5 20.5C37.1568 20.5 38.5 21.8431 38.5 23.5C38.5 25.1569 37.1568 26.5 35.5 26.5C34.7684 26.5 34.098 26.2382 33.5774 25.8031ZM20.5 20.5C20.8093 20.5 21.1076 20.5468 21.3884 20.6337C21.2976 21.075 21.25 21.5319 21.25 22C21.25 23.4106 21.6827 24.7201 22.4226 25.8031C21.9019 26.2382 21.2315 26.5 20.5 26.5C18.8431 26.5 17.5 25.1569 17.5 23.5C17.5 21.8431 18.8431 20.5 20.5 20.5Z" fill="#8FC33F"/>
</svg>
