<svg width="56" height="56" viewBox="0 0 56 56" fill="none" xmlns="http://www.w3.org/2000/svg">
<rect width="56" height="56" rx="28" fill="white"/>
<path d="M36.3836 36.2132C36.6987 35.1576 36.895 34.074 36.895 33.0628C36.895 31.1088 36.2328 29.3272 35.125 27.8974V17.4977C36.9504 17.0059 38.8953 15.8847 40.3956 14.8765C41.4581 14.1624 43 14.9048 43 16.185V30.6891C43 31.5669 42.6169 32.4019 41.9168 32.9313C40.6761 33.8694 38.5359 35.3527 36.3836 36.2132Z" fill="#8FC33F"/>
<path d="M32.875 25.8527C31.4659 24.9577 29.7856 24.4415 28.0001 24.4415C26.2128 24.4415 24.5331 24.957 23.125 25.8515V12.9139C25.0422 13.0741 26.5211 14.1992 28 15.3243C29.4789 16.4493 30.9578 17.5744 32.875 17.7346V25.8527Z" fill="#8FC33F"/>
<path d="M20.875 27.8983C19.9664 29.073 19.3578 30.4855 19.1676 32.0373C19.1315 32.3318 19.1108 32.6302 19.1061 32.9318C17.8515 33.4886 16.6251 34.2268 15.6044 34.9126C14.5418 35.6267 13 34.8843 13 33.6041V19.1C13 18.2222 13.3831 17.3872 14.0832 16.8578C15.5667 15.736 18.3365 13.8349 20.875 13.1509V27.8983Z" fill="#8FC33F"/>
<path fill-rule="evenodd" clip-rule="evenodd" d="M34.2178 36.2381C34.6145 35.1077 34.8423 33.9988 34.8423 33.0627C34.8423 29.435 31.7789 26.4941 28 26.4941C24.4945 26.4941 21.6048 29.0248 21.2049 32.2869C21.1738 32.5414 21.1577 32.8003 21.1577 33.0627C21.1577 36.6905 24.5789 42.9156 28 42.9156C30.5384 42.9156 33.0768 39.4885 34.2178 36.2381ZM28 34.7049C29.1337 34.7049 30.0527 33.7859 30.0527 32.6522C30.0527 31.5186 29.1337 30.5996 28 30.5996C26.8663 30.5996 25.9473 31.5186 25.9473 32.6522C25.9473 33.7859 26.8663 34.7049 28 34.7049Z" fill="#8FC33F"/>
</svg>
