<svg width="56" height="56" viewBox="0 0 56 56" fill="none" xmlns="http://www.w3.org/2000/svg">
<rect width="56" height="56" rx="28" fill="white"/>
<path fill-rule="evenodd" clip-rule="evenodd" d="M23.125 13C23.125 12.3787 22.6213 11.875 22 11.875C21.3787 11.875 20.875 12.3787 20.875 13V15.25H20.5C17.1863 15.25 14.5 17.9363 14.5 21.25V22.375H41.5V21.25C41.5 17.9363 38.8137 15.25 35.5 15.25H35.125V13C35.125 12.3787 34.6213 11.875 34 11.875C33.3787 11.875 32.875 12.3787 32.875 13V15.25H23.125V13ZM14.5 24.625H41.5V37C41.5 40.3137 38.8137 43 35.5 43H20.5C17.1863 43 14.5 40.3137 14.5 37V24.625Z" fill="#8FC33F"/>
</svg>
