<svg width="56" height="56" viewBox="0 0 56 56" fill="none" xmlns="http://www.w3.org/2000/svg">
<rect width="56" height="56" rx="28" fill="white"/>
<path fill-rule="evenodd" clip-rule="evenodd" d="M34.2705 43H21.7295C18.2664 43 15.4589 40.3209 15.4589 37.0162V29.6996C15.4589 28.6372 15.0167 27.6184 14.2295 26.8672C12.4057 25.1268 12.6428 22.2431 14.7288 20.7954L24.3119 14.1445C26.5106 12.6185 29.4894 12.6185 31.6881 14.1445L41.2712 20.7954C43.3572 22.2431 43.5943 25.1268 41.7705 26.8672C40.9833 27.6184 40.5411 28.6372 40.5411 29.6996V37.0162C40.5411 40.3209 37.7336 43 34.2705 43ZM22.4393 32.9643C21.8673 32.7216 21.2069 32.9886 20.9643 33.5606C20.7216 34.1325 20.9886 34.7929 21.5606 35.0356C24.004 36.0722 26.0161 36.63 28.0634 36.6249C30.1118 36.6198 32.0837 36.0514 34.4454 35.033C35.0159 34.7869 35.279 34.125 35.033 33.5545C34.7869 32.9839 34.125 32.7209 33.5545 32.9669C31.3207 33.9301 29.6712 34.3709 28.0578 34.3749C26.4433 34.3789 24.7531 33.9459 22.4393 32.9643Z" fill="#8FC33F"/>
</svg>
