<svg width="56" height="56" viewBox="0 0 56 56" fill="none" xmlns="http://www.w3.org/2000/svg">
<rect width="56" height="56" rx="28" fill="white"/>
<path fill-rule="evenodd" clip-rule="evenodd" d="M26.5 14.6875C24.636 14.6875 23.125 16.1985 23.125 18.0625V19.5625C23.125 20.1838 22.6213 20.6875 22 20.6875C21.3787 20.6875 20.875 20.1838 20.875 19.5625V18.0625C20.875 14.9559 23.3934 12.4375 26.5 12.4375H29.5C32.6066 12.4375 35.125 14.9559 35.125 18.0625V19.5625C35.125 20.1838 34.6213 20.6875 34 20.6875C33.3787 20.6875 32.875 20.1838 32.875 19.5625V18.0625C32.875 16.1985 31.364 14.6875 29.5 14.6875H26.5Z" fill="#8FC33F"/>
<path d="M19 19.5625H37C40.3137 19.5625 43 22.2488 43 25.5625C43 25.5625 39.447 29.0395 30.4321 29.3913C30.3261 29.3954 30.234 29.3154 30.2155 29.211C30.029 28.1565 29.1081 27.3555 28 27.3555C26.9239 27.3555 26.0242 28.111 25.8024 29.1205C25.7797 29.2237 25.685 29.2997 25.5797 29.2918C16.5472 28.6172 13 25.5625 13 25.5625C13 22.2488 15.6863 19.5625 19 19.5625Z" fill="#8FC33F"/>
<path d="M25.75 31.2942C25.75 31.1891 25.6669 31.1019 25.5622 31.0942C18.4694 30.5697 14.5079 28.7069 13 27.8314V37.5625C13 40.8762 15.6863 43.5625 19 43.5625H37C40.3137 43.5625 43 40.8762 43 37.5625V27.8941C41.4885 28.8845 37.5171 30.9597 30.4446 31.2507C30.337 31.2552 30.25 31.3435 30.25 31.4512V31.7055C30.25 32.9481 29.2426 33.9555 28 33.9555C26.7574 33.9555 25.75 32.9481 25.75 31.7055V31.2942Z" fill="#8FC33F"/>
<rect x="26.875" y="28.5625" width="2.25" height="4.19104" rx="1.125" fill="#8FC33F"/>
</svg>
