<svg width="56" height="56" viewBox="0 0 56 56" fill="none" xmlns="http://www.w3.org/2000/svg">
<rect width="56" height="56" rx="28" fill="white"/>
<path fill-rule="evenodd" clip-rule="evenodd" d="M29.9952 13.1316C36.6835 14.0205 41.9795 19.3165 42.8685 26.0048C43.014 27.0997 42.1046 28 41 28H30C28.8954 28 28 27.1046 28 26V15C28 13.8955 28.9003 12.986 29.9952 13.1316ZM13 29.5001C13 22.2959 18.643 16.4097 25.75 16.0205V25.0001C25.75 27.8996 28.1005 30.2501 31 30.2501H39.9795C39.5903 37.3571 33.7042 43.0001 26.5 43.0001C19.0442 43.0001 13 36.9559 13 29.5001Z" fill="#8FC33F"/>
</svg>
