<svg width="56" height="56" viewBox="0 0 56 56" fill="none" xmlns="http://www.w3.org/2000/svg">
<rect width="56" height="56" rx="28" fill="white"/>
<path fill-rule="evenodd" clip-rule="evenodd" d="M17 13C14.7909 13 13 14.7909 13 17V39C13 41.2091 14.7909 43 17 43H39C41.2091 43 43 41.2091 43 39V17C43 14.7909 41.2091 13 39 13H17ZM31.75 22.375C31.1287 22.375 30.625 22.8787 30.625 23.5C30.625 24.1213 31.1287 24.625 31.75 24.625H33.159L29.7058 29.8925C29.5545 30.1232 29.2143 30.1171 29.0714 29.8811L26.2091 25.1525C25.1598 23.419 22.6254 23.4777 21.6574 25.2579L18.0117 31.9626C17.7149 32.5084 17.9168 33.1915 18.4626 33.4883C19.0085 33.7851 19.6916 33.5833 19.9884 33.0374L23.634 26.3327C23.7723 26.0784 24.1344 26.07 24.2843 26.3177L27.1466 31.0462C28.1467 32.6985 30.5286 32.7413 31.5875 31.1261L35.2568 25.529L35.9938 27.0031C36.2717 27.5588 36.9474 27.7841 37.5031 27.5062C38.0589 27.2284 38.2841 26.5526 38.0063 25.9969L36.9209 23.8261C36.4762 22.9368 35.5673 22.375 34.573 22.375H31.75Z" fill="#8FC33F"/>
</svg>
